<?xml version="1.0" encoding="iso-8859-1"?>
<!-- Generator: Adobe Illustrator 19.0.0, SVG Export Plug-In . SVG Version: 6.00 Build 0)  -->
<svg version="1.1" id="Capa_1" xmlns="http://www.w3.org/2000/svg" xmlns:xlink="http://www.w3.org/1999/xlink" x="0px" y="0px"
	 viewBox="0 0 469.333 469.333" style="enable-background:new 0 0 469.333 469.333;" xml:space="preserve">
<g>
	<g>
		<g>
			<path d="M458.667,384h-448C4.771,384,0,388.771,0,394.667v32c0,23.531,19.135,42.667,42.667,42.667h384
				c23.531,0,42.667-19.135,42.667-42.667v-32C469.333,388.771,464.563,384,458.667,384z"/>
			<path d="M426.667,0h-384C19.135,0,0,19.135,0,42.667V352c0,5.896,4.771,10.667,10.667,10.667h448
				c5.896,0,10.667-4.771,10.667-10.667V42.667C469.333,19.135,450.198,0,426.667,0z M245.333,181.333v-42.667
				c0-5.896-4.771-10.667-10.667-10.667S224,132.771,224,138.667v42.667h-96c0-12.307,2.505-23.939,6.34-34.939l11.858,6.845
				c1.677,0.969,3.51,1.427,5.323,1.427c3.688,0,7.271-1.917,9.25-5.333c2.948-5.104,1.198-11.625-3.906-14.573l-13.507-7.797
				c6.565-10.999,15.014-20.573,24.961-28.544l9.108,15.779c1.979,3.417,5.563,5.333,9.25,5.333c1.813,0,3.646-0.458,5.323-1.427
				c5.104-2.948,6.854-9.469,3.906-14.573l-9.66-16.736c11.552-5.932,24.234-9.691,37.754-11.053V96
				c0,5.896,4.771,10.667,10.667,10.667s10.667-4.771,10.667-10.667V75.742c13.52,1.362,26.202,5.121,37.754,11.053l-9.66,16.736
				c-2.948,5.104-1.198,11.625,3.906,14.573c1.677,0.969,3.51,1.427,5.323,1.427c3.688,0,7.271-1.917,9.25-5.333l9.108-15.779
				c9.947,7.971,18.396,17.546,24.961,28.544l-13.507,7.797c-5.104,2.948-6.854,9.469-3.906,14.573
				c1.979,3.417,5.563,5.333,9.25,5.333c1.813,0,3.646-0.458,5.323-1.427l11.858-6.845c3.835,11,6.34,22.632,6.34,34.939H245.333z"
				/>
		</g>
	</g>
</g>
<g>
</g>
<g>
</g>
<g>
</g>
<g>
</g>
<g>
</g>
<g>
</g>
<g>
</g>
<g>
</g>
<g>
</g>
<g>
</g>
<g>
</g>
<g>
</g>
<g>
</g>
<g>
</g>
<g>
</g>
</svg>
