<?xml version="1.0" encoding="iso-8859-1"?>
<!-- Generator: Adobe Illustrator 18.0.0, SVG Export Plug-In . SVG Version: 6.00 Build 0)  -->
<!DOCTYPE svg PUBLIC "-//W3C//DTD SVG 1.1//EN" "http://www.w3.org/Graphics/SVG/1.1/DTD/svg11.dtd">
<svg version="1.1" id="Capa_1" xmlns="http://www.w3.org/2000/svg" xmlns:xlink="http://www.w3.org/1999/xlink" x="0px" y="0px"
	 viewBox="0 0 304.875 304.875" style="enable-background:new 0 0 304.875 304.875;" xml:space="preserve">
<g>
	<path d="M187.006,77.255c-16.612,0-6.897,30.227-18.333,63.396c-13.109,37.995-46.212,46.212-46.212,99.679
		c0,35.646,28.898,64.545,64.545,64.545c35.642,0,69.506-19.095,72.562-63.778C264.211,173.167,213.74,77.255,187.006,77.255z
		 M192.963,282.665c-28.381,0-51.466-23.091-51.466-51.477c0-4.221,3.423-7.645,7.643-7.645c4.219,0,7.644,3.424,7.644,7.645
		c0,19.955,16.228,36.189,36.179,36.189c4.219,0,7.644,3.423,7.644,7.643S197.182,282.665,192.963,282.665z"/>
	<path d="M146.009,120.695C149.429,70.656,112.245,0,92.557,0C80.32,0,87.476,22.265,79.047,46.699
		c-9.655,27.993-34.04,34.04-34.04,73.429c0,26.266,21.285,47.551,47.55,47.551C118.813,167.678,143.756,153.609,146.009,120.695z
		 M96.942,151.54c-21.03,0-38.14-17.109-38.14-38.14c0-3.235,2.623-5.857,5.857-5.857c3.235,0,5.857,2.622,5.857,5.857
		c0,14.571,11.854,26.425,26.425,26.425c3.235,0,5.857,2.623,5.857,5.857C102.799,148.916,100.176,151.54,96.942,151.54z"/>
</g>
<g>
</g>
<g>
</g>
<g>
</g>
<g>
</g>
<g>
</g>
<g>
</g>
<g>
</g>
<g>
</g>
<g>
</g>
<g>
</g>
<g>
</g>
<g>
</g>
<g>
</g>
<g>
</g>
<g>
</g>
</svg>
